<svg xmlns="http://www.w3.org/2000/svg" width="42" height="48" fill="none" viewBox="0 0 42 48"><path fill="#92964a" fill-rule="evenodd" d="M15.102.574c-1.28.74-1.496 3.739-.35 4.875.42.417 1.509.758 2.42.758 2.03 0 3.183-1.06 3.183-2.923 0-2.735-2.752-4.154-5.253-2.71M23.54 8.76c-1.927.987-6.177 2.843-9.446 4.126-8.026 3.15-8.47 4.239-4.297 10.528l1.153 1.737H6.471c-2.463 0-4.932.172-5.486.383-2.098.798-.656 8.498 2.54 13.561C8.122 46.375 18.5 49.9 26.703 46.966c3.617-1.294 7.918-3.787 9.629-5.582C38.927 38.66 41.984 31.247 42 27.639c.014-3.447-.855-3.76-8.908-3.21-4.028.276-7.444.408-7.592.294-.147-.115.337-.847 1.075-1.627 3.515-3.713 4.957-10.637 2.998-14.395-1.168-2.24-1.55-2.236-6.033.06m-3.184 5.997c-3.328 1.53-6.838 3.058-7.801 3.397-.964.34-1.751.91-1.751 1.27s.787 1.522 1.75 2.581c3.565 3.922 10.45 2.847 12.955-2.021 1.362-2.647 2.354-8.12 1.46-8.05-.31.023-3.286 1.293-6.614 2.823M2.523 29.43c.002.985 4.308 8.23 5.619 9.455 2.891 2.699 7.67 4.564 11.71 4.57 8.696.016 17.064-6.245 17.058-12.76l-.001-1.44H19.717c-9.456 0-17.193.078-17.193.175" clip-rule="evenodd"/></svg>