<svg xmlns="http://www.w3.org/2000/svg" width="37" height="48" fill="none" viewBox="0 0 37 48"><path fill="#92964a" fill-rule="evenodd" d="M10.075.744c-2.539 1.182-6.248 5.409-6.834 7.79C1.954 13.76 4.33 23.247 7.926 27.247l1.406 1.563L6.53 31.73C3.284 35.112.104 41.717.007 45.279c-.056 2.062.185 2.505 1.459 2.69 1.247.18 1.768-.356 2.854-2.937 1.548-3.681 6.449-9.269 9.69-11.047l2.259-1.24 6.38 3.96c3.51 2.178 7.524 5.01 8.92 6.294 2.875 2.645 4.214 2.913 5.196 1.042.543-1.035.207-1.91-1.673-4.372-3.118-4.078-6.363-6.662-13.224-10.53-7.766-4.378-10.025-6.263-11.48-9.575-2.27-5.167-.356-12.169 3.81-13.943 2.867-1.22 5.424-.682 7.898 1.663 2.646 2.509 2.565 6.39-.22 10.678-1.145 1.76-1.888 3.52-1.652 3.91 1.485 2.449 7.394-2.293 8.18-6.565 1.12-6.086-.737-11.088-5.08-13.68C20.49-.063 12.898-.569 10.075.744" clip-rule="evenodd"/></svg>