<svg xmlns="http://www.w3.org/2000/svg" width="49" height="48" fill="none" viewBox="0 0 49 48"><path fill="#92964a" fill-rule="evenodd" d="M22.112 1.64c-1.935 1.95-2.108 3.567-.612 5.72 1.437 2.069 5.195 2.081 7.096.024 4.268-4.618-2.049-10.215-6.484-5.745M17.63 15.98c-4.057 1.535-7.148 3.756-10.743 7.722C2.748 28.265.746 33.299.193 40.54c-.37 4.846-.286 5.384.958 6.055 2.528 1.364 3.684-.402 4.301-6.565.857-8.572 4.727-14.731 11.35-18.066 6.77-3.409 18.143-1.22 22.072 4.248 2.618 3.643 4.72 9.447 5.36 14.801.556 4.658 1.389 6.115 3.114 5.447 1.753-.678 2.024-2.445 1.221-7.965-1.529-10.518-6.136-18.124-12.948-21.374-4.077-1.946-14.173-2.587-17.992-1.142m1.409 10.738c-1.405 1.487-3.049 4.209-3.655 6.047-.976 2.964-.99 3.714-.126 6.607 1.302 4.364 3.99 7.792 6.552 8.359 3.796.84 7.472-.294 10.716-3.308 4.179-3.883 5.18-6.084 4.812-10.57-.494-6.007-5.233-9.84-12.163-9.84-3.283 0-3.797.226-6.136 2.704m2.883 5.072c-1.854 1.99-1.892 4.798-.105 7.713 1.768 2.883 2.921 3.29 5.844 2.058 2.64-1.112 4.362-4.233 3.844-6.967-.768-4.047-6.784-5.807-9.583-2.804" clip-rule="evenodd"/></svg>