<svg xmlns="http://www.w3.org/2000/svg" width="65" height="48" fill="none" viewBox="0 0 65 48"><path fill="#92964a" fill-rule="evenodd" d="M32.889 1.093c-.519.62-.707 1.86-.443 2.908.363 1.435.928 1.827 2.622 1.827 2.454 0 4.034-2.1 3.301-4.39-.555-1.735-4.13-1.96-5.48-.345m21.458 6.395c-1.7 2.486-4.37 5.86-5.936 7.496-2.709 2.828-11.87 9.749-12.906 9.749-.268 0-2.206-1.26-4.305-2.8s-5.63-3.81-7.847-5.043c-4.597-2.556-8.399-6.008-10-9.083-1.058-2.027-1.155-2.06-2.513-.84-.777.697-1.413 1.66-1.413 2.137 0 2.434 5.081 7.721 14.306 14.887l10.156 7.888 4.077-3.171C47.09 21.61 54.038 14.1 56.78 8.373c3.29-6.872 1.982-7.348-2.432-.885m-32.801-1.96c-.683 1.035-1.133 1.973-1 2.088 14.102 12.048 14.293 12.088 21.74 4.47 7.242-7.41 7.063-9.822-.198-2.666l-5.452 5.372-5.236-4.3C22.278 3 22.982 3.354 21.546 5.528m40.11 8.299c-1.686 2.599-3.62 5.504-4.298 6.456-.68.952-5.843 5.11-11.477 9.241L35.64 37.036l-3.029-1.523c-9.284-4.67-21.71-12.04-24.095-14.292-1.508-1.423-3.289-4.007-3.957-5.742l-1.214-3.156-1.724 1.606c-2.077 1.936-2.141 3.64-.29 7.685 2.33 5.091 6.988 9.057 13.867 11.808 7.198 2.879 12.631 6.902 15.35 11.367C31.624 46.555 32.743 48 33.036 48c.292 0 1.827-1.717 3.41-3.817 3.698-4.907 7.86-8.78 14.94-13.898 3.124-2.258 6.71-5.495 7.972-7.192 3.134-4.218 5.93-10.365 5.618-12.352-.215-1.369-.767-.857-3.32 3.085" clip-rule="evenodd"/></svg>