<svg xmlns="http://www.w3.org/2000/svg" width="71" height="48" fill="none" viewBox="0 0 71 48"><path fill="#92964a" fill-rule="evenodd" d="M39.585 2.07c-1.263 1.354-3.612 5.12-5.22 8.368-1.61 3.247-5.983 9.516-9.718 13.93-10.067 11.897-13.66 20.428-9.527 22.627 3.202 1.703 11.347 1.16 15.242-1.016 3.425-1.914 3.818-1.936 9.828-.574 5.695 1.292 6.541 1.28 9.38-.131 4.926-2.448 4.541-4.386-.885-4.461-2.495-.035-6.805-.413-9.577-.839-3.41-.524-6.714-.376-10.215.459-2.845.679-5.423.987-5.728.684-.303-.302 1.61-3.353 4.251-6.78s5.855-8.028 7.14-10.224c2.352-4.02 8.555-23.28 7.753-24.076-.236-.235-1.462.68-2.724 2.034M49.96 12.913c-1.662 1.826-1.633 1.917 1.02 3.281 6.629 3.409 12.587 2.695 18.231-2.183 2.945-2.546 2.3-3.05-2.29-1.79-3.509.962-9.01.716-13.314-.596-1.286-.392-2.512.04-3.647 1.287m-48.074.071c0 .611-.428.848-.95.527-1.51-.927-1.1 1.131.549 2.771 5.806 5.773 19.61 4.49 24.04-2.233 1.435-2.179 1.416-2.267-.38-1.757-11.718 3.327-10.235 3.323-21.597.06-.914-.263-1.662.022-1.662.632" clip-rule="evenodd"/></svg>