<svg xmlns="http://www.w3.org/2000/svg" width="47" height="50" fill="none" viewBox="0 0 47 50"><path fill="#92964a" fill-rule="evenodd" d="M12.038 1.479c-1.697.845-3.94 2.51-4.984 3.7C2.953 9.85-.515 20.367.064 26.38c.345 3.598 1.443 5.173 6.61 9.485 2.17 1.811 5.337 4.997 7.037 7.08 3.837 4.701 6.025 6.087 9.616 6.09 5.87.005 14.08-7.482 19.039-17.365 5.093-10.147 6.006-17.581 2.65-21.57-2.227-2.646-4.365-3.54-10.772-4.502A46 46 0 0 1 19.585.78c-2.287-1.206-4.052-1.042-7.547.7m-1.556 4.467C6.626 7.1 4.63 10.603 3.473 18.245c-.829 5.46-.475 8.423 1.268 10.64.659.836 3.818 3.321 7.02 5.52 3.202 2.2 6.563 4.692 7.468 5.537l1.647 1.537v-1.64c0-2.499-1.53-4.927-4.342-6.889-3.037-2.118-8.83-7.612-8.83-8.373 0-.297.389-.862.865-1.257.706-.586 1.9.115 6.504 3.819 3.102 2.495 5.95 4.536 6.329 4.536 1.348 0-1.149-4.46-4.358-7.784-5.218-5.403-6.105-7.23-4.046-8.332.941-.503 1.79.243 5.76 5.069 2.56 3.112 4.847 5.658 5.082 5.658s2.786-2.715 5.67-6.034 5.374-5.903 5.534-5.744c.549.55-1.656 4.05-4.6 7.302-1.623 1.79-3.618 4.271-4.434 5.513-1.43 2.175-3.092 7.792-2.485 8.399.258.258 2.977-2.493 11.48-11.615 1.185-1.271 2.01-1.86 1.833-1.309-.593 1.842-3.212 5.592-6.214 8.897-3.645 4.012-8.683 10.824-8.293 11.214.157.157 1.501.104 2.987-.12 3.186-.477 8.298-4.005 12.258-8.46 6.952-7.818 8.798-19.35 3.682-22.994-.96-.683-3.466-1.452-5.815-1.785-2.272-.322-5.872-1.116-8.001-1.764-7.527-2.289-13.352-2.92-16.958-1.84m11.301 8.74c-1.2 1.2-.996 4.635.29 4.867 1.146.206 3.842-3.726 3.38-4.93-.46-1.196-2.444-1.162-3.67.063" clip-rule="evenodd"/></svg>