<svg xmlns="http://www.w3.org/2000/svg" width="96" height="48" fill="none" viewBox="0 0 96 48"><path fill="#92964a" fill-rule="evenodd" d="M30.786 2.51c-4.923 4.888-4.31 9.83 1.718 13.862 4.11 2.749 8.06 2.522 17.957-1.034 4.626-1.662 10.52-3.26 13.098-3.55 9.054-1.02 10.619-2.048 11.626-7.635.539-2.99-.184-3.046-2.5-.194-1.612 1.984-2.737 2.295-11.044 3.058-5.087.466-12.025 1.624-15.416 2.573-7.895 2.208-10.221 2.199-12.654-.051-2.613-2.416-2.043-3.671 2.148-4.73 4.306-1.089 5.661-1.938 5.661-3.55C41.38.347 40.271 0 37.348 0c-3.265 0-4.513.477-6.562 2.51m63.007 8.625c-2.32 4.28-5.113 5.641-10.23 4.989-7.736-.987-13.373 1.89-27.175 13.862-8.195 7.11-14.822 10.387-22.036 10.9-7 .497-10.685-1.008-12.923-5.275l-1.483-2.826-1.135 2.623c-1.78 4.11-1.435 6.217 1.406 8.59 3.784 3.16 8.18 4.322 14.857 3.928 9.331-.55 14.394-3.397 24.542-13.798 11.605-11.896 11.14-11.623 21.59-12.662 2.766-.276 5.973-.856 7.125-1.292 2.578-.972 6.6-5.596 7.31-8.401.926-3.66-.03-3.99-1.848-.638M.362 12.588c-1.477 5.842 1.344 8.332 12.605 11.125 3.963.983 9.343 3.183 12.864 5.258 7.642 4.506 11.19 5.01 16.43 2.338 2.986-1.522 4.48-3.055 6.057-6.21 1.15-2.304 1.838-4.442 1.525-4.751-.312-.31-2.467 1.476-4.789 3.97-2.32 2.493-4.802 4.533-5.513 4.533-1.564 0-4.499-1.921-9.049-5.923-4.597-4.042-8.372-5.461-16.758-6.3-6.381-.639-7.325-.978-9.526-3.423-2.938-3.263-3.168-3.3-3.846-.617" clip-rule="evenodd"/></svg>