<svg xmlns="http://www.w3.org/2000/svg" width="83" height="48" fill="none" viewBox="0 0 83 48"><path fill="#92964a" fill-rule="evenodd" d="M51.21 1.607c-1.996 1.125-4.27 3.657-7.415 8.256-2.494 3.648-4.39 6.633-4.214 6.633.177 0 2.187-2.433 4.466-5.405 4.273-5.574 6.628-7.014 8.682-5.312 2.236 1.854.75 5.382-4.667 11.079-2.76 2.902-5.354 5.904-5.765 6.67-1.184 2.21.469 3.712 4.538 4.12 1.948.195 3.654.469 3.793.607.138.138-1.205 1.592-2.984 3.23-4.385 4.037-5.69 6.164-5.136 8.368.357 1.422.908 1.803 2.608 1.803 2.753 0 22.618-10.098 25.51-12.968l2.145-2.128h-1.828c-1.005 0-3.751 1.176-6.103 2.613-11.011 6.729-12.67 7.629-15.051 8.165-1.4.316-2.695.333-2.877.039s1.784-2.228 4.368-4.297c4.743-3.796 7.478-7.287 7.483-9.55.004-1.987-2.488-2.897-5.585-2.038-4.585 1.273-4.698.883-.991-3.379C59.23 10.014 62.367 3.128 60.06.825c-1.37-1.368-5.716-.985-8.852.782M29.49 6.763c-2.887 1.255-12.546 7.74-13.832 9.288-1.52 1.83.662 1.506 3.694-.549 9.04-6.128 12.35-6.942 13.165-3.235.663 3.017-.113 3.673-12.252 10.37C7.495 29.68 3.367 32.742 1.23 36.766-1.472 41.855.32 45.721 6.19 47.48c6.352 1.9 10.368-.967 22.2-15.853 6.957-8.752 7.65-9.893 3.296-5.42-10.104 10.38-18.77 14.331-22.547 10.282-.807-.865-1.468-1.917-1.468-2.338 0-.799 5.448-4.394 14.033-9.263 6.717-3.81 9.56-6.036 12-9.398 2.542-3.505 2.72-7.057.433-8.657-1.897-1.328-1.753-1.325-4.646-.069M4.584 18.113c-1.922 1.434-.05 4.493 2.75 4.493 1.76 0 2.175-.326 2.352-1.845.164-1.4-.235-2.051-1.653-2.696-2.271-1.035-1.993-1.038-3.449.048m73.365 10.48c-1.505 1.66-1.528 3.434-.053 4 2.068.793 3.133.458 4.327-1.364.952-1.452 1.008-2.01.289-2.876-1.209-1.453-3.12-1.353-4.563.24" clip-rule="evenodd"/></svg>