<svg xmlns="http://www.w3.org/2000/svg" width="48" height="48" fill="none" viewBox="0 0 48 48"><path fill="#92964a" fill-rule="evenodd" d="M37.41.472c-.253.256-.46 1.533-.46 2.835 0 3.875-1.705 6.32-8.205 11.774l-1.643 1.378.478-5.264c.544-5.979-.233-9.09-2.27-9.09-2.18 0-2.794 1.548-3.006 7.59l-.203 5.77-4.662-4.415c-3.557-3.369-4.662-4.87-4.662-6.33 0-1.235-.367-1.914-1.036-1.914-1.361 0-1.394 4.281-.053 6.862.54 1.04 2.753 3.593 4.915 5.673 3.693 3.553 7.597 10.094 6.803 11.396-.191.314-1.233.106-2.316-.461s-4.709-1.838-8.059-2.822c-7.324-2.151-9.04-3.206-10.335-6.349C1.04 13.09-.817 14.67.383 19.073c.897 3.296 3.785 5.816 8.25 7.196 10.66 3.297 12.674 4.733 14.458 10.311.46 1.44 1.176 2.828 1.59 3.087 1.097.688 3.29-2.393 3.29-4.622 0-2.492 1.207-3.484 8.312-6.827C44 24.587 48 19.718 48 13.963c0-1.588-.314-2.055-1.381-2.055-.76 0-1.417.394-1.461.876-.044.481-.152 1.19-.24 1.575-.089.385-.208 1.408-.266 2.273-.184 2.754-4.6 6.88-9.618 8.987-2.555 1.073-5.159 2.386-5.786 2.918-.791.672-1.282.734-1.605.205-1.049-1.722.69-5.068 6.23-11.986 6.435-8.039 8.17-12.028 6.801-15.643-.422-1.117-2.41-1.507-3.264-.641M24.597 43.159c-1.823 1.295-1.887 3.479-.129 4.432 2.436 1.322 4.701-.75 3.838-3.507-.552-1.763-2.014-2.128-3.709-.925" clip-rule="evenodd"/></svg>