<svg xmlns="http://www.w3.org/2000/svg" width="56" height="48" fill="none" viewBox="0 0 56 48"><path fill="#92964a" fill-rule="evenodd" d="M22.117 2.225C15.82 4.817 11.819 8.412 6.964 15.832c-3.711 5.672-4.449 9.513-2.187 11.392 2.208 1.836 3.89.415 6.666-5.629C18.957 5.232 37.129 1.738 45.906 14.97c2.778 4.189 2.981 4.98 2.605 10.154-.537 7.356-2.88 10.62-10.062 14.024-7.66 3.628-10.624 3.386-15.743-1.282-1.708-1.559-2.041-2.805-2.041-7.65 0-4.935.328-6.118 2.227-8.018 3.094-3.1 8.063-3.078 10.104.04 1.376 2.105 1.376 2.44 0 4.543-1.805 2.76-3.259 2.935-3.259.395 0-1.513-.485-1.822-2.495-1.59-2.055.236-2.543.787-2.77 3.126-.478 4.92 4.642 7.973 9.474 5.646 3.351-1.613 6.679-6.704 6.674-10.21-.008-7.127-8.18-12.82-15.326-10.676-7.504 2.252-10.98 7.424-10.98 16.34 0 3.016.434 6.633.963 8.04 1.38 3.668 6.107 8.26 9.733 9.458 9.96 3.292 26.41-5.672 29.998-16.349 1.558-4.631 1.24-12.736-.665-16.935C50.863 6.357 40.298-.052 31.221 0c-2.063.012-6.16 1.013-9.104 2.225M1.196 39.005c-1.397 1.547-1.509 2.252-.653 4.133.817 1.797 1.699 2.267 4.246 2.267 2.573 0 3.426-.466 4.279-2.342 1.402-3.08.027-5.293-3.51-5.652-1.797-.182-3.23.342-4.362 1.594" clip-rule="evenodd"/></svg>