<svg xmlns="http://www.w3.org/2000/svg" width="50" height="48" fill="none" viewBox="0 0 50 48"><path fill="#92964a" fill-rule="evenodd" d="M17.533.905c-1.36 1.63.397 4.855 2.645 4.855.985 0 2.208-.415 2.717-.922 1.015-1.01 1.272-4.383.347-4.575-2.512-.522-4.97-.246-5.709.642m20.62 1.153c-.176.557-.54 2.396-.806 4.086-.267 1.69-.836 4.18-1.266 5.535l-.782 2.463-4.813-.447c-5.904-.55-11.852.642-15.898 3.185l-3.05 1.918-1.923-2.509c-2.418-3.155-5.047-8.866-5.07-11.011-.024-2.366-1.992-3.827-3.49-2.59C-1.38 4.7.663 15.509 4.505 20.934l2.445 3.454-1.515 3.552c-2.04 4.78-4.293 14.336-3.727 15.806.795 2.06 3.514 1.431 4-.926 1.154-5.601 4.597-15.553 5.379-15.553.107 0 1.67.518 3.475 1.152 4.317 1.516 11.064 1.465 14.396-.109 1.467-.692 3.558-2.42 4.645-3.84 1.088-1.419 2.44-2.58 3.005-2.58 2.489 0 6.739 8.862 8.471 17.666.652 3.312 1.645 4.609 3.532 4.609 1.955 0 1.866-2.527-.38-10.754-2.12-7.755-4.146-11.89-7.286-14.858l-2.31-2.183 1.49-3.353c.82-1.844 1.567-5.182 1.66-7.417.157-3.694.013-4.087-1.567-4.31-.957-.136-1.886.21-2.063.768m-16.692 16.72c-2.728.824-5.357 2.283-5.357 2.974 0 1.081 4.479 3.21 6.756 3.21 2.23 0 8.678-3.93 8.678-5.292 0-1.493-6.253-2.048-10.077-.892m.859 22.819c-1.061 1.343-1.44 2.59-1.11 3.648.992 3.166 4.164 3.72 6.04 1.053 3.428-4.872-1.26-9.343-4.93-4.701" clip-rule="evenodd"/></svg>