<svg xmlns="http://www.w3.org/2000/svg" width="71" height="48" fill="none" viewBox="0 0 71 48"><path fill="#92964a" fill-rule="evenodd" d="M50.994 1.01c-1.544.715-4.636 2.853-6.872 4.751s-4.861 3.452-5.834 3.452-4.548-1.492-7.943-3.315c-8.51-4.571-12.365-4.483-19.908.452-3.976 2.602-5.759 4.371-5.759 5.714 0 3.135 2.27 3.15 7.246.05 6.375-3.971 10.509-3.877 17.125.39 7.276 4.693 11.349 4.571 17.72-.527 5.716-4.574 10.213-6.649 12.88-5.942 1.062.281 3.255 2.18 4.874 4.219 2.492 3.138 3.224 3.557 4.766 2.722 2.733-1.481 2.218-4.015-1.731-8.52C64.32.76 63.55.37 58.902.056c-3.052-.208-6.228.176-7.908.954m-.935 18.047c-1.544.684-4.445 2.373-6.447 3.752-2.002 1.38-4.59 2.507-5.75 2.507-1.162 0-5.328-1.546-9.257-3.434-5.934-2.854-7.86-3.355-11.364-2.955-5.306.606-12.922 5.224-13.33 8.083-.401 2.814 1.848 2.734 7.71-.276 2.531-1.301 5.448-2.365 6.48-2.365s5 1.563 8.82 3.474c9.733 4.869 13.031 4.725 21.79-.948 3.754-2.431 7.095-4.42 7.427-4.42.33 0 2.016 1.278 3.745 2.841 3.573 3.23 4.858 3.485 6.633 1.319 1.082-1.319.726-2.016-2.656-5.21-4.303-4.063-8.394-4.765-13.801-2.368M12.632 33.798C6.96 35.136 0 39.972 0 42.575c0 2.987 2.606 2.948 7.166-.111 5.554-3.724 9.947-3.875 14.407-.496 9.548 7.233 16.388 7.879 25.215 2.38 6.979-4.346 10.12-4.694 13.834-1.529 3.539 3.014 6.279 2.857 6.279-.36 0-1.468-1.251-3.276-3.597-5.198-5.074-4.155-10.05-3.947-19.181.804-8.165 4.247-10.575 4.15-18.622-.751-6.102-3.716-8.845-4.466-12.87-3.516" clip-rule="evenodd"/></svg>